<svg width="28" height="28" viewBox="0 0 28 28" fill="none" xmlns="http://www.w3.org/2000/svg">
<g id="checklist_FILL0_wght300_GRAD0_opsz24 (1) 1">
<path id="Vector" d="M6.61412 19.0615L10.9577 14.7179C11.1312 14.5444 11.3361 14.4588 11.5725 14.461C11.8088 14.4633 12.0137 14.5549 12.1872 14.7359C12.3487 14.9121 12.4295 15.1177 12.4295 15.3526C12.4295 15.5876 12.3487 15.7918 12.1872 15.9653L7.38141 20.789C7.17052 20.9999 6.92448 21.1054 6.64329 21.1054C6.36209 21.1054 6.11604 20.9999 5.90514 20.789L3.52021 18.4041C3.35869 18.2426 3.27979 18.0395 3.28352 17.795C3.28726 17.5504 3.3699 17.3474 3.53144 17.1859C3.69297 17.0243 3.89663 16.9436 4.14242 16.9436C4.38822 16.9436 4.59064 17.0243 4.74967 17.1859L6.61412 19.0615ZM6.61412 10.1769L10.9577 5.83333C11.1312 5.65983 11.3361 5.5742 11.5725 5.57646C11.8088 5.5787 12.0137 5.6703 12.1872 5.85127C12.3487 6.02749 12.4295 6.23309 12.4295 6.46806C12.4295 6.703 12.3487 6.90723 12.1872 7.08073L7.38141 11.9045C7.17052 12.1154 6.92448 12.2208 6.64329 12.2208C6.36209 12.2208 6.11604 12.1154 5.90514 11.9045L3.52021 9.51953C3.35869 9.35799 3.27979 9.15495 3.28352 8.91041C3.28726 8.66586 3.3699 8.46281 3.53144 8.30127C3.69297 8.13974 3.89663 8.05898 4.14242 8.05898C4.38822 8.05898 4.59064 8.13974 4.74967 8.30127L6.61412 10.1769ZM16.0529 19.3172C15.8049 19.3172 15.5971 19.2333 15.4294 19.0656C15.2617 18.8978 15.1779 18.6899 15.1779 18.4419C15.1779 18.1938 15.2617 17.9861 15.4294 17.8186C15.5971 17.651 15.8049 17.5673 16.0529 17.5673H24.2195C24.4675 17.5673 24.6753 17.6512 24.8429 17.819C25.0107 17.9867 25.0945 18.1946 25.0945 18.4427C25.0945 18.6907 25.0107 18.8984 24.8429 19.066C24.6753 19.2335 24.4675 19.3172 24.2195 19.3172H16.0529ZM16.0529 10.4327C15.8049 10.4327 15.5971 10.3488 15.4294 10.181C15.2617 10.0132 15.1779 9.80531 15.1779 9.55727C15.1779 9.30926 15.2617 9.1015 15.4294 8.93398C15.5971 8.76647 15.8049 8.68271 16.0529 8.68271H24.2195C24.4675 8.68271 24.6753 8.76659 24.8429 8.93436C25.0107 9.10215 25.0945 9.31005 25.0945 9.55806C25.0945 9.80609 25.0107 10.0139 24.8429 10.1814C24.6753 10.3489 24.4675 10.4327 24.2195 10.4327H16.0529Z" fill="#098BED"/>
</g>
</svg>
